<svg width="1024" height="1024" xmlns="http://www.w3.org/2000/svg">

 <g>
  <title>Layer 1</title>
  <g stroke="null" id="svg_13">
   <path stroke="null" id="svg_1" d="m540.70139,349.27227c14.92092,8.64615 78.22418,67.63956 91.56498,81.00682c45.24135,45.33275 77.16836,95.87242 76.17748,162.03288c-0.69746,38.9281 -11.79435,76.95912 -32.14106,110.15119c-20.32987,32.55713 -63.59427,71.57663 -91.6227,98.12354l-65.08781,62.69479c-30.5393,29.17323 -59.75341,58.9838 -89.9536,88.72221c-39.70734,39.09886 -92.18789,65.09502 -148.81955,64.49857c-77.31748,-0.81531 -110.0117,-43.11048 -160.25555,-94.08066c-21.22214,-21.37847 -42.86757,-42.94453 -63.99351,-64.34705c-55.46762,-56.20116 -51.54017,-143.77376 -11.72701,-207.54841c16.90749,-27.08565 38.58899,-47.62235 61.62454,-69.27259c60.67695,-57.20166 118.70835,-122.60212 180.65757,-177.95189c-8.15792,37.03052 -4.8582,82.63023 11.03436,117.21722c5.77692,12.57599 12.98245,24.00238 18.70165,36.36913l0.4762,1.05101c-25.92882,25.71718 -52.0789,51.21309 -78.44544,76.48533c-19.61316,18.84355 -43.59149,40.18113 -59.13291,61.4153c-42.9782,58.72165 15.99357,106.88513 53.18042,146.12589c18.25912,19.26924 31.28486,27.42476 58.23102,28.4421c31.09727,1.17366 50.08272,-10.37057 70.92967,-31.96068c36.61204,-36.57837 73.8999,-73.6113 110.32435,-110.14397c21.24379,-21.30872 59.33974,-55.34977 75.54977,-78.31557c19.33177,-31.19828 23.13896,-70.54486 6.63312,-103.10921c-20.7267,-40.89784 -65.82135,-65.64337 -64.21718,-115.00939c1.20974,-37.24216 25.53439,-59.11367 50.31119,-82.59656z" fill="#000000"/>
   <path stroke="null" id="svg_2" d="m722.92705,9.6194c107.52247,-10.47398 158.38923,80.74226 227.94321,144.21869c33.60814,30.67157 51.02068,76.69216 49.81575,121.61124c-1.30835,37.88672 -13.06903,74.67433 -33.98333,106.29109c-16.39521,25.03895 -38.61785,43.93782 -60.10214,64.33743c-57.11988,54.23142 -110.66106,112.21712 -167.71841,166.475c4.83896,-58.07709 -3.77833,-102.84465 -38.61545,-149.45929c28.85095,-30.5417 61.92517,-58.71684 91.28359,-88.92664c24.81288,-25.53199 59.61632,-48.67095 60.10695,-87.83235c0.56278,-45.00566 -35.99395,-71.16536 -63.35136,-101.5339c-16.53711,-18.24229 -35.56104,-28.93272 -60.67455,-28.63209c-33.97852,0.40645 -53.50269,22.03024 -75.49445,44.23364c-32.29258,31.81397 -64.89059,63.3201 -97.78684,94.51116c-24.87781,23.60314 -55.35458,51.31891 -76.20153,78.04861c-11.57068,14.83914 -17.70596,37.27584 -17.65546,55.81154c0.0457,15.94787 -1.01974,22.67479 3.12416,38.70684c13.1484,50.886 74.16446,72.34624 71.19903,127.5926c-2.01543,37.50432 -28.06931,58.53405 -53.73839,81.91593c-14.22105,-10.63272 -28.00197,-23.49251 -41.68188,-34.75054c-37.85545,-31.14777 -72.76472,-63.40908 -97.66178,-106.3464c-13.89156,-23.95668 -23.39871,-42.91567 -26.78261,-70.90081c-7.22476,-59.71974 13.78333,-119.13885 51.16499,-165.40716c15.3875,-19.04557 34.08434,-34.13725 51.32372,-50.91005c34.9718,-34.18775 70.11676,-68.19513 105.43489,-102.02453c19.12013,-18.60785 38.019,-37.43938 56.69419,-56.49457c44.81566,-45.08022 76.83406,-73.48142 143.35768,-80.53543z" fill="#000000"/>
   <path stroke="null" id="svg_3" d="m1000.49362,379.32575c3.6677,4.00921 8.69906,25.24579 10.17095,31.46524c13.51156,56.10495 16.27015,114.26382 8.12906,171.39573c-34.50041,253.62672 -265.765,452.1562 -521.99638,441.71348c-21.631,-0.88025 -42.04024,-3.5739 -63.47162,-6.51287c-6.42629,-1.86391 -29.29829,-3.56428 -31.42916,-8.97323c33.35561,-9.65867 84.00591,-79.63594 116.33938,-102.2939c18.36494,-2.00581 34.04826,-1.73404 53.1251,-4.88225c75.86723,-12.57599 146.28944,-47.39868 202.33427,-100.0548c64.20756,-59.90012 107.02944,-139.18252 121.91909,-225.72095c4.92073,-30.17132 5.20452,-51.95144 6.10882,-82.0939c45.82338,-41.6915 66.39856,-59.76063 98.7705,-114.04256z" fill="#000000"/>
   <path stroke="null" id="svg_4" d="m510.63589,0.20845c36.96799,0.82253 79.27038,4.81491 115.03584,14.69003c-22.88643,16.19559 -33.23776,21.08986 -55.13813,41.9777c-17.68432,16.8642 -44.44769,48.42083 -63.07959,61.40568c-99.40784,3.10251 -183.94046,34.98623 -257.77062,103.43149c-64.66933,59.95544 -107.87842,138.50911 -123.45351,225.38905c-5.22617,29.14677 -5.35604,52.53586 -6.20021,81.79568c-19.19469,17.93925 -38.25229,36.02762 -57.16799,54.26269c-21.7248,21.56847 -27.68932,30.12563 -43.5458,55.57584c-73.62813,-241.40427 72.28612,-510.48342 303.16589,-601.50726c63.43554,-25.01009 119.86277,-36.01078 188.1541,-37.0209z" fill="#000000"/>
   <path stroke="null" id="svg_5" d="m244.8757,232.34607c5.2406,-0.12025 5.37528,-0.30063 8.17716,3.70618l-1.2386,0.97164l-3.65808,-2.20783l-1.58733,1.6186c-2.97985,0.76962 -2.05151,0.52911 -5.29592,0.25253l-0.52671,-1.39012l4.12947,-2.95099z" fill-opacity="0.01176" fill="#000000"/>
  </g>
 </g>
</svg>